<?xml version="1.0" encoding="utf-8"?>
<!-- Generator: Adobe Illustrator 21.0.2, SVG Export Plug-In . SVG Version: 6.00 Build 0)  -->
<svg version="1.1" id="Layer_1" xmlns="http://www.w3.org/2000/svg" xmlns:xlink="http://www.w3.org/1999/xlink" x="0px" y="0px"
	 width="18.2090263px" height="18.2182617px" viewBox="0 0 18.2090263 18.2182617"
	 style="enable-background:new 0 0 18.2090263 18.2182617;" xml:space="preserve">
<style type="text/css">
	.st0{fill:#666E6E;}
</style>
<path class="st0" d="M8.722168,18.2182617c-3.3491211,0-6.3852539-1.6367188-8.1220703-4.3779297
	c-0.2216797-0.3496094-0.1176758-0.8134766,0.2324219-1.0351562c0.3496094-0.2216797,0.8120117-0.1181641,1.0351562,0.2324219
	c1.4599609,2.3046875,4.0224609,3.6806641,6.8544922,3.6806641c4.4042969,0,7.9882812-3.3945312,7.9882812-7.5673828
	S13.1264648,1.5834961,8.722168,1.5834961c-3.1591797,0-6.027832,1.7695312-7.3071289,4.5073242
	C1.2397461,6.4667969,0.7924805,6.6269531,0.4179688,6.453125C0.0424805,6.2773438-0.1196289,5.8310547,0.0556641,5.4560547
	C1.5810547,2.1923828,4.9829102,0.0834961,8.722168,0.0834961c5.2314453,0,9.4882812,4.0673828,9.4882812,9.0673828
	S13.9536133,18.2182617,8.722168,18.2182617z"/>
<g>
	<path class="st0" d="M6.0380859,6.5336914H0.75c-0.4140625,0-0.75-0.3359375-0.75-0.75s0.3359375-0.75,0.75-0.75h5.2880859
		c0.4140625,0,0.75,0.3359375,0.75,0.75S6.4521484,6.5336914,6.0380859,6.5336914z"/>
	<path class="st0" d="M0.75,6.5336914c-0.4140625,0-0.75-0.3359375-0.75-0.75V0.75C0,0.3359375,0.3359375,0,0.75,0
		S1.5,0.3359375,1.5,0.75v5.0336914C1.5,6.1977539,1.1640625,6.5336914,0.75,6.5336914z"/>
</g>
</svg>
