<?xml version="1.0" encoding="utf-8"?>
<!-- Generator: Adobe Illustrator 21.0.2, SVG Export Plug-In . SVG Version: 6.00 Build 0)  -->
<svg version="1.1" id="Layer_1" xmlns="http://www.w3.org/2000/svg" xmlns:xlink="http://www.w3.org/1999/xlink" x="0px" y="0px"
	 width="18.2090263px" height="18.2182617px" viewBox="0 0 18.2090263 18.2182617"
	 style="enable-background:new 0 0 18.2090263 18.2182617;" xml:space="preserve">
<style type="text/css">
	.st0{fill:#666E6E;}
</style>
<path class="st0" d="M9.4732952,18.2182617c3.3491211,0,6.3852539-1.6367188,8.1220703-4.3779297
	c0.2216797-0.3496094,0.1176758-0.8134766-0.2324219-1.0351562c-0.3496094-0.2216797-0.8120117-0.1181641-1.0351562,0.2324219
	c-1.4599609,2.3046875-4.0224609,3.6806641-6.8544922,3.6806641c-4.4042964,0-7.9882812-3.3945312-7.9882812-7.5673828
	s3.5839846-7.5673828,7.9882812-7.5673828c3.1591797,0,6.027832,1.7695312,7.3071289,4.5073242
	c0.175293,0.3759766,0.6225586,0.5361328,0.9970703,0.3623047c0.3754883-0.1757812,0.5375977-0.6220703,0.3623047-0.9970703
	c-1.5253906-3.2636719-4.9272461-5.3725586-8.6665039-5.3725586c-5.2314448,0-9.4882812,4.0673828-9.4882812,9.0673828
	S4.2418504,18.2182617,9.4732952,18.2182617z"/>
<g>
	<path class="st0" d="M12.1573772,6.5336914h5.2880859c0.4140625,0,0.75-0.3359375,0.75-0.75s-0.3359375-0.75-0.75-0.75h-5.2880859
		c-0.4140625,0-0.75,0.3359375-0.75,0.75S11.7433147,6.5336914,12.1573772,6.5336914z"/>
	<path class="st0" d="M17.4454632,6.5336914c0.4140625,0,0.75-0.3359375,0.75-0.75V0.75c0-0.4140625-0.3359375-0.75-0.75-0.75
		c-0.4140625,0-0.75,0.3359375-0.75,0.75v5.0336914C16.6954632,6.1977539,17.0314007,6.5336914,17.4454632,6.5336914z"/>
</g>
</svg>
