<?xml version="1.0" encoding="utf-8"?>
<!-- Generator: Adobe Illustrator 21.0.2, SVG Export Plug-In . SVG Version: 6.00 Build 0)  -->
<svg version="1.1" id="Layer_1" xmlns="http://www.w3.org/2000/svg" xmlns:xlink="http://www.w3.org/1999/xlink" x="0px" y="0px"
	 width="26.2988281px" height="26.5458984px" viewBox="0 0 26.2988281 26.5458984"
	 style="enable-background:new 0 0 26.2988281 26.5458984;" xml:space="preserve">
<style type="text/css">
	.st0{fill:#FFFFFF;}
</style>
<path class="st0" d="M17.8066406,21.7587891H5.5371094c-0.4140625,0-0.75-0.3359375-0.75-0.75V0.75
	c0-0.4140625,0.3359375-0.75,0.75-0.75s0.75,0.3359375,0.75,0.75v19.5087891h11.5195312c0.4140625,0,0.75,0.3359375,0.75,0.75
	S18.2207031,21.7587891,17.8066406,21.7587891z"/>
<path class="st0" d="M2.4121094,6.2871094H0.75c-0.4140625,0-0.75-0.3359375-0.75-0.75s0.3359375-0.75,0.75-0.75h1.6621094
	c0.4140625,0,0.75,0.3359375,0.75,0.75S2.8261719,6.2871094,2.4121094,6.2871094z"/>
<path class="st0" d="M25.5488281,21.7587891h-1.4921875c-0.4140625,0-0.75-0.3359375-0.75-0.75s0.3359375-0.75,0.75-0.75h1.4921875
	c0.4140625,0,0.75,0.3359375,0.75,0.75S25.9628906,21.7587891,25.5488281,21.7587891z"/>
<path class="st0" d="M20.9316406,26.5458984c-0.4140625,0-0.75-0.3359375-0.75-0.75V6.2871094H8.6621094
	c-0.4140625,0-0.75-0.3359375-0.75-0.75s0.3359375-0.75,0.75-0.75h12.2695312c0.4140625,0,0.75,0.3359375,0.75,0.75v20.2587891
	C21.6816406,26.2099609,21.3457031,26.5458984,20.9316406,26.5458984z"/>
</svg>
