<?xml version="1.0" encoding="utf-8"?>
<!-- Generator: Adobe Illustrator 21.1.0, SVG Export Plug-In . SVG Version: 6.00 Build 0)  -->
<svg version="1.1" id="Layer_1" xmlns="http://www.w3.org/2000/svg" xmlns:xlink="http://www.w3.org/1999/xlink" x="0px" y="0px"
	 width="28.2px" height="28.2px" viewBox="0 0 28.2 28.2" style="enable-background:new 0 0 28.2 28.2;" xml:space="preserve">
<style type="text/css">
	.st0{fill:#FFFFFF;}
	.st1{opacity:0.35;fill:#FFFFFF;enable-background:new    ;}
</style>
<path class="st0" d="M3,17.4C-1,13.4-1,6.9,3,3c4-4,10.4-4,14.4,0c4,4,4,10.4,0,14.4C13.4,21.3,6.9,21.3,3,17.4z M16.3,4
	C12.9,0.7,7.4,0.7,4,4c-3.4,3.4-3.4,8.9,0,12.3c3.4,3.4,8.9,3.4,12.3,0C19.7,12.9,19.7,7.4,16.3,4z"/>
<path class="st0" d="M10.9,25.2c-4-4-4-10.4,0-14.4c4-4,10.4-4,14.4,0c4,4,4,10.4,0,14.4C21.3,29.2,14.8,29.2,10.9,25.2z M24.2,11.9
	c-3.4-3.4-8.9-3.4-12.3,0c-3.4,3.4-3.4,8.9,0,12.3c3.4,3.4,8.9,3.4,12.3,0C27.6,20.8,27.6,15.3,24.2,11.9z"/>
<ellipse transform="matrix(0.7071 -0.7071 0.7071 0.7071 -7.4754 18.0473)" class="st1" cx="18" cy="18" rx="9.4" ry="9.4"/>
<path class="st0" d="M11.4,11.4c-2.2,2.2-3.1,5.2-2.6,8.1c2.9,0.4,5.9-0.4,8.1-2.6c2.2-2.2,3.1-5.2,2.6-8.1
	C16.6,8.3,13.6,9.2,11.4,11.4z"/>
</svg>
