<?xml version="1.0" encoding="utf-8"?>
<!-- Generator: Adobe Illustrator 20.1.0, SVG Export Plug-In . SVG Version: 6.00 Build 0)  -->
<svg version="1.1" xmlns="http://www.w3.org/2000/svg" xmlns:xlink="http://www.w3.org/1999/xlink" x="0px" y="0px" width="1118px"
	 height="183px" viewBox="0 0 1118 183" style="enable-background:new 0 0 1118 183;" xml:space="preserve">
<style type="text/css">
	.st0{display:none;}
	.st1{display:inline;fill:#A8B2B1;}
	.st2{font-family:'ISTKMaquette-Medium';}
	.st3{font-size:176px;}
	.st4{fill:#A8B2B1;}
	.st5{fill-rule:evenodd;clip-rule:evenodd;fill:#FFFFFF;}
</style>
<g id="Working_Text" class="st0">
	<text transform="matrix(1 0 0 1 562.99823 163.0585938)" class="st1 st2 st3">Editor</text>
</g>
<g id="Layer_1">
	<g>
		<path class="st4" d="M577.6054688,163.0585938V45.8461914h85.3574219v17.9511719h-64.765625v28.5112305h56.3183594v17.9516602
			h-56.3183594v34.847168h66.5253906v17.9511719H577.6054688z"/>
		<path class="st4" d="M747.3535156,163.0585938v-13.5517578c-8.2714844,11.0878906-19.1835938,15.6640625-31.1513672,15.6640625
			c-26.2226562,0-42.4140625-20.9433594-42.4140625-48.2231445c0-27.4550781,16.1914062-48.3984375,42.4140625-48.3984375
			c12.1445312,0,22.8798828,4.5756836,31.1513672,15.6635742V37.3984375h19.5351562v125.6601562H747.3535156z
			 M720.4267578,85.9726562c-17.5996094,0-26.0478516,13.9038086-26.0478516,30.9750977
			c0,17.0717773,8.4482422,30.7993164,26.0478516,30.7993164c17.7753906,0,26.9267578-13.7275391,26.9267578-30.7993164
			C747.3535156,99.7001953,738.0263672,85.9726562,720.4267578,85.9726562z"/>
		<path class="st4" d="M798.5527344,35.4624023c6.3359375,0,11.6152344,5.2797852,11.6152344,11.6157227
			c0,6.3354492-5.2792969,11.6157227-11.6152344,11.6157227S786.9375,53.4135742,786.9375,47.078125
			C786.9375,40.7421875,792.2167969,35.4624023,798.5527344,35.4624023z M788.8730469,163.0585938V70.6611328h19.359375v92.3974609
			H788.8730469z"/>
		<path class="st4" d="M886.7802734,158.3066406c-5.8076172,4.4003906-13.0234375,6.8642578-21.9990234,6.8642578
			c-11.2636719,0-19.8876953-3.6962891-24.9912109-11.7919922c-3.1679688-4.7519531-4.4003906-10.3837891-4.4003906-19.359375
			V85.6210938h-15.4873047V70.6611328h15.4873047V45.8461914h19.5351562v24.8149414h28.5117188v14.9599609h-28.5117188v48.5742188
			c0,9.328125,4.4003906,13.7275391,12.4960938,13.7275391c5.1035156,0,8.9755859-1.9355469,11.6152344-4.0478516
			L886.7802734,158.3066406z"/>
		<path class="st4" d="M936.1464844,165.1708984c-28.6875,0-46.8144531-20.0634766-46.8144531-48.2231445
			c0-28.3349609,18.1269531-48.3984375,46.8144531-48.3984375s46.8144531,20.0634766,46.8144531,48.3984375
			C982.9609375,145.1074219,964.8339844,165.1708984,936.1464844,165.1708984z M936.1464844,85.4448242
			c-16.7197266,0-26.2236328,13.5517578-26.2236328,31.5029297c0,17.7758789,9.5039062,31.3276367,26.2236328,31.3276367
			s26.046875-13.5517578,26.046875-31.3276367C962.1933594,98.996582,952.8662109,85.4448242,936.1464844,85.4448242z"/>
		<path class="st4" d="M1051.53125,91.0766602c-2.9921875-1.5839844-6.3359375-2.815918-10.5595703-2.815918
			c-11.7919922,0-22.1757812,10.2075195-22.1757812,27.8071289v46.9907227h-19.359375V70.6611328h19.359375v14.9599609
			c6.1601562-9.6801758,15.3115234-16.7197266,26.046875-16.7197266c5.1044922,0,9.6796875,1.4077148,12.3203125,3.1679688
			L1051.53125,91.0766602z"/>
	</g>
	<g>
		<g>
			<path class="st5" d="M55.5702171,163.223526H30.8715477V71.0218735h24.6986694V163.223526z M79.2801056,127.6731033
				c7.6101379,8.3560257,19.1981583,14.6373367,31.3600082,14.6373367c11.4053421,0,19.3909531-7.0418701,19.3909531-16.7327881
				c0-17.1006775-24.7032242-19.1936035-42.5725555-29.6425552c-10.4514771-6.090538-18.8277435-15.2126846-18.8277435-30.2406769
				c0-23.7544174,21.8765564-37.4353638,43.9165573-37.4353638c13.4906845,0,26.0376205,3.2340183,38.5896225,12.5469379
				l-13.302948,19.0028267c-5.3370667-4.9413528-14.2664185-8.7314911-23.0135956-8.7314911
				c-9.6802979,0-20.5224304,4.1681404-20.5224304,14.4318848c0,21.486412,61.4002991,14.8225403,61.4002991,59.695488
				c0,23.5591049-21.1109467,39.9063034-45.0581589,39.9063034c-17.8642654,0-34.3992004-7.3976135-48.087738-19.9592285
				L79.2801056,127.6731033z M232.4519196,163.223526c-3.2269287,1.1314697-10.6538849,1.8874817-15.3978882,1.8874817
				c-14.8301239,0-25.6525269-4.9413605-31.9384003-13.302948c-4.7485504-6.2706909-6.8440094-14.4344177-6.8440094-27.5622711
				V91.9324265h-25.6570892v-20.910553h25.6570892V45.3597336h24.7133484v25.6621399h30.4157562v20.910553h-30.4157562v35.1552048
				c0,5.7246857,0.9437408,9.1297455,3.0442505,11.6102905c2.4557495,2.8560028,6.4488068,4.5562592,12.5317535,4.5562592
				c3.6175995,0,8.3813324-0.5535889,10.0912018-0.9437408L232.4519196,163.223526z M287.2500916,69.1217422
				c27.9306641,0,49.0365295,21.4838791,49.0365295,48.0973511c0,26.6084213-21.1058655,47.8919144-49.0365295,47.8919144
				c-27.9352112,0-49.0461578-21.283493-49.0461578-47.8919144
				C238.2039337,90.6056213,259.3148804,69.1217422,287.2500916,69.1217422z M287.2500916,142.3104401
				c14.444519,0,24.3181152-11.2176056,24.3181152-25.0913467c0-13.8813248-9.8735962-25.2866669-24.3181152-25.2866669
				c-14.4541626,0-24.3277588,11.4053421-24.3277588,25.2866669
				C262.9223328,131.0928345,272.795929,142.3104401,287.2500916,142.3104401z M433.8648071,144.4003296
				c-10.8471985,14.4496002-24.5402832,20.7106781-41.8266602,20.7106781c-28.5080566,0-49.426178-21.283493-49.426178-47.8919144
				c0-26.8012085,21.4813538-48.0973511,49.6189575-48.0973511c15.9666748,0,30.2184143,7.4224014,38.7723083,18.4370956
				l-17.4883118,15.3958664c-4.9317322-6.458931-12.339447-11.0222778-21.2839966-11.0222778
				c-14.2568054,0-24.901062,11.2251968-24.901062,25.2866669c0,14.4465714,10.4615784,25.0913467,25.4794617,25.0913467
				c10.0658875,0,18.046936-6.0930634,22.0400085-12.1663971L433.8648071,144.4003296z M489.4386902,112.4624405
				l50.7605896,50.7610855h-33.2723083l-38.9746704-39.9336243v39.9336243h-24.6987V30.1591892h24.6987v70.7177658
				l31.740509-29.8550797h34.8040161L489.4386902,112.4624405z M27.066227,44.4159927
				c0-8.9273262,7.239727-16.1569347,16.159462-16.1569347c8.9247971,0,16.1544037,7.2296085,16.1544037,16.1569347
				c0,8.9121437-7.2296066,16.1564255-16.1544037,16.1564255C34.305954,60.5724182,27.066227,53.3281364,27.066227,44.4159927z"/>
		</g>
	</g>
</g>
</svg>
