<?xml version="1.0" encoding="utf-8"?>
<!-- Generator: Adobe Illustrator 21.0.2, SVG Export Plug-In . SVG Version: 6.00 Build 0)  -->
<svg version="1.1" id="Layer_1" xmlns="http://www.w3.org/2000/svg" xmlns:xlink="http://www.w3.org/1999/xlink" x="0px" y="0px"
	 width="24.2680664px" height="24.2685547px" viewBox="0 0 24.2680664 24.2685547"
	 style="enable-background:new 0 0 24.2680664 24.2685547;" xml:space="preserve">
<style type="text/css">
	.st0{fill:#ADB9BA;}
	.st1{fill:#666E6E;}
</style>
<path class="st0" d="M12.1342773,24.2685547C5.4433594,24.2685547,0,18.8251953,0,12.1337891C0,5.4433594,5.4433594,0,12.1342773,0
	c6.6904297,0,12.1337891,5.4433594,12.1337891,12.1337891C24.2680664,18.8251953,18.824707,24.2685547,12.1342773,24.2685547z
	 M12.1342773,1C5.9946289,1,1,5.9946289,1,12.1337891c0,6.1396484,4.9946289,11.1347656,11.1342773,11.1347656
	s11.1337891-4.9951172,11.1337891-11.1347656C23.2680664,5.9946289,18.2739258,1,12.1342773,1z"/>
<path class="st1" d="M16.9604492,12.8837891h-9.652832c-0.4140625,0-0.75-0.3359375-0.75-0.75s0.3359375-0.75,0.75-0.75h9.652832
	c0.4140625,0,0.75,0.3359375,0.75,0.75S17.3745117,12.8837891,16.9604492,12.8837891z"/>
<path class="st1" d="M12.1342773,17.7109375c-0.4140625,0-0.75-0.3359375-0.75-0.75v-9.652832c0-0.4140625,0.3359375-0.75,0.75-0.75
	s0.75,0.3359375,0.75,0.75v9.652832C12.8842773,17.375,12.5483398,17.7109375,12.1342773,17.7109375z"/>
</svg>
