<?xml version="1.0" encoding="utf-8"?>
<!-- Generator: Adobe Illustrator 20.1.0, SVG Export Plug-In . SVG Version: 6.00 Build 0)  -->
<svg version="1.1" id="Layer_1" xmlns="http://www.w3.org/2000/svg" xmlns:xlink="http://www.w3.org/1999/xlink" x="0px" y="0px"
	 width="33.1666679px" height="25.458334px" viewBox="0 0 33.1666679 25.458334"
	 style="enable-background:new 0 0 33.1666679 25.458334;" xml:space="preserve">
<style type="text/css">
	.st0{fill:#FFFFFF;}
	.st1{opacity:0.35;fill:#FFFFFF;enable-background:new    ;}
</style>
<title>icon_images_Light</title>
<desc>Created with Sketch.</desc>
<g id="Find-Replace-Image">
	<g id="_x30_8_x5F_Image_x5F_Similar_x5F_Revert-A" transform="translate(-30.000000, -92.000000)">
		<g id="Main-Panel" transform="translate(0.000000, 72.000000)">
			<g id="MainMenu_Images" transform="translate(2.000000, 0.000000)">
				<g id="icon_images_Light" transform="translate(28.000000, 20.000000)">
					<path id="Shape" class="st0" d="M31.5801163,1H6.7837644C6.3530588,1,6.0454116,1.3691765,6.0454116,1.7383529v3.8148236
						H1.7383529C1.307647,5.5531764,1,5.9223528,1,6.2915292v17.5358829c0,0.430706,0.3691764,0.7383537,0.7383529,0.7383537
						h24.8578815c0.430706,0,0.7383518-0.3691769,0.7383518-0.7383537v-3.8148232h4.3070583
						c0.4307041,0,0.7383518-0.3691769,0.7383518-0.7383537V1.7998823C32.3799973,1.3691765,32.0108223,1,31.5801163,1z
						 M30.8417645,2.5382352v13.6595287l-8.1218834-7.6296463c-0.3076458-0.3076468-0.7383518-0.3076468-1.0459995,0
						l-5.5376472,5.1684704l-2.3996468-2.2765884c-0.3076468-0.2461176-0.7383528-0.2461176-1.0459995,0l-5.1069412,4.6762352
						V2.5382352H30.8417645z M25.7963524,23.150589H2.4767058V7.1529412h3.5071766v12.1828232
						c0,0.430706,0.3691764,0.7383537,0.7383528,0.7383537h19.0125885v3.0764713H25.7963524z M7.5221176,18.5358829v-0.2461185
						l5.5991764-5.1684713l2.3996468,2.2765884c0.3076468,0.2461176,0.7383518,0.2461176,1.0459995,0l5.5376472-5.1684704
						l8.6756477,8.1218824v0.2461185H7.5221176V18.5358829z"/>
					<path id="Shape_1_" class="st0" d="M16.1977654,9.9217644c-1.6612949,0-3.0149422-1.3536472-3.0149422-3.0149412
						s1.3536472-3.0149407,3.0149422-3.0149407c1.661293,0,3.0149403,1.3536468,3.0149403,3.0149407
						S17.8590584,9.9217644,16.1977654,9.9217644z M16.1977654,5.4301176c-0.7998829,0-1.4767065,0.6768236-1.4767065,1.4767056
						s0.6768236,1.4767056,1.4767065,1.4767056c0.799881,0,1.4767056-0.6768231,1.4767056-1.4767056
						S17.0591755,5.4301176,16.1977654,5.4301176z"/>
					<polygon id="Shape_2_" class="st1" points="2.0416667,6.6269412 6.9166665,6.6269412 6.9068232,19.0896473 
						26.5347061,19.1686077 26.5347061,23.7043533 2.0416667,23.7043533 					"/>
					<circle id="Oval" class="st1" cx="16.1977634" cy="6.9068232" r="1.7843528"/>
				</g>
			</g>
		</g>
	</g>
</g>
</svg>
