<?xml version="1.0" encoding="utf-8"?>
<!-- Generator: Adobe Illustrator 21.0.2, SVG Export Plug-In . SVG Version: 6.00 Build 0)  -->
<svg version="1.1" id="Layer_1" xmlns="http://www.w3.org/2000/svg" xmlns:xlink="http://www.w3.org/1999/xlink" x="0px" y="0px"
	 width="10.7226562px" height="12.2880859px" viewBox="0 0 10.7226562 12.2880859"
	 style="enable-background:new 0 0 10.7226562 12.2880859;" xml:space="preserve">
<style type="text/css">
	.st0{fill:#666E6E;}
</style>
<path class="st0" d="M8.7783203,12.2880859c-0.1796875,0-0.359375-0.0634766-0.5029297-0.1933594
	c-0.3066406-0.2773438-0.3310547-0.7519531-0.0537109-1.0595703c0.6455078-0.7148438,1.0009766-1.6347656,1.0009766-2.5908203
	c0-2.1367188-1.7382812-3.875-3.875-3.875H1.5283203c-0.4140625,0-0.75-0.3359375-0.75-0.75s0.3359375-0.75,0.75-0.75h3.8193359
	c2.9638672,0,5.375,2.4111328,5.375,5.375c0,1.3271484-0.4931641,2.6044922-1.3876953,3.5966797
	C9.1875,12.2050781,8.9833984,12.2880859,8.7783203,12.2880859z"/>
<g>
	<path class="st0" d="M3.8203125,7.6391602c-0.1923828,0-0.3837891-0.0732422-0.5302734-0.2197266L0.2197266,4.3496094
		c-0.2929688-0.2929688-0.2929688-0.7675781,0-1.0605469s0.7675781-0.2929688,1.0605469,0l3.0703125,3.0698242
		c0.2929688,0.2929688,0.2929688,0.7675781,0,1.0605469C4.2041016,7.565918,4.0126953,7.6391602,3.8203125,7.6391602z"/>
	<path class="st0" d="M0.75,4.5693359c-0.1923828,0-0.3837891-0.0732422-0.5302734-0.2197266
		c-0.2929688-0.2929688-0.2929688-0.7680664,0-1.0605469l3.0703125-3.0693359c0.2929688-0.2929688,0.7675781-0.2929688,1.0605469,0
		s0.2929688,0.7680664,0,1.0605469L1.2802734,4.3496094C1.1337891,4.4960938,0.9423828,4.5693359,0.75,4.5693359z"/>
</g>
</svg>
