<?xml version="1.0" encoding="utf-8"?>
<!-- Generator: Adobe Illustrator 21.1.0, SVG Export Plug-In . SVG Version: 6.00 Build 0)  -->
<svg version="1.1" id="Layer_1" xmlns="http://www.w3.org/2000/svg" xmlns:xlink="http://www.w3.org/1999/xlink" x="0px" y="0px"
	 width="24.9985352px" height="24.5188808px" viewBox="0 0 24.9985352 24.5188808"
	 style="enable-background:new 0 0 24.9985352 24.5188808;" xml:space="preserve">
<style type="text/css">
	.st0{fill:#FFFFFF;}
	.st1{opacity:0.35;fill:#FFFFFF;}
</style>
<path class="st0" d="M20.487833,8.5851879c-0.2209663,0.216157-0.4477749,0.4266996-0.6715488,0.640008
	c-0.2016048,0.192131-0.3937969,0.4131184-0.662693,0.5093489c-0.5877037,0.2102537-0.9916763-0.1334677-1.379303-0.5029497
	c-0.431818-0.4115076-0.8636169-0.8230572-1.295435-1.2346058c-0.7251759-0.6911578-1.4503508-1.3822746-2.1755257-2.0733914
	c0,1.5232558,0,4.5698905,0,4.5698905s0.0574446,2.7282209,0,4.0844049
	c-0.0429144,1.0126686-1.0221853,1.0044947-1.8042278,0.9889727c-0.7820625,0.015522-1.7613544,0.0236959-1.8042469-0.9889727
	c-0.0574656-1.356184,0-4.0844049,0-4.0844049s0-3.0466347,0-4.5698905C9.9696569,6.6147146,9.244482,7.3058314,8.5193071,7.9969893
	C8.0875082,8.4085379,7.6556897,8.8200874,7.2238708,9.231595c-0.3876257,0.369482-0.7915993,0.7132034-1.3793025,0.5029497
	C5.5756721,9.6383142,5.3834801,9.4173269,5.1818748,9.2251959c-0.2237735-0.2133083-0.450582-0.423851-0.6715279-0.640008
	C4.0613751,8.1458549,4.0599713,7.5571613,4.501719,7.1138659c0.6034937-0.6056199,1.2399311-1.1817636,1.8588028-1.7715721
	C8.0838757,3.6998541,9.80725,2.0573735,11.5306244,0.4148929C11.7582378,0.1979514,12.0281296,0,12.4990997,0
	c0.4709711,0,0.7408428,0.1979514,0.9684353,0.4148929c1.7233744,1.6424806,3.4467487,3.2849612,5.1701221,4.9274006
	c0.6188526,0.5898085,1.2552891,1.1659522,1.8587837,1.7715721C20.9381886,7.5571613,20.9368038,8.1458549,20.487833,8.5851879z"/>
<path class="st1" d="M24.2485352,24.5188808H0.75c-0.4140625,0-0.75-0.3359375-0.75-0.75v-7.8320322
	c0-0.4140625,0.3359375-0.75,0.75-0.75h3.9165039c0.4140625,0,0.75,0.3359375,0.75,0.75v3.1660166H19.581543v-3.1660166
	c0-0.4140625,0.3359375-0.75,0.75-0.75h3.9169922c0.4140625,0,0.75,0.3359375,0.75,0.75v7.8320322
	C24.9985352,24.1829433,24.6625977,24.5188808,24.2485352,24.5188808z M1.5,23.0188808h21.9985352v-6.3320312H21.081543v3.1660156
	c0,0.4140625-0.3359375,0.75-0.75,0.75H4.6665039c-0.4140625,0-0.75-0.3359375-0.75-0.75v-3.1660156H1.5V23.0188808z"/>
</svg>
